<svg xmlns="http://www.w3.org/2000/svg" version="1.1" xmlns:xlink="http://www.w3.org/1999/xlink" xmlns:svgjs="http://svgjs.dev/svgjs" width="128" height="128" viewBox="0 0 128 128"><g transform="matrix(0.8046875,0,0,0.8046875,12.506335372881338,26.240015433638902)"><svg viewBox="0 0 59 43" data-background-color="#ffffff" preserveAspectRatio="xMidYMid meet" height="93" width="128" xmlns="http://www.w3.org/2000/svg" xmlns:xlink="http://www.w3.org/1999/xlink"><g id="tight-bounds" transform="matrix(1,0,0,1,-0.0036289999999894462,0.1965189532572822)"><svg viewBox="0 0 59.00725799999999 42.606962093485436" height="42.606962093485436" width="59.00725799999999"><g><svg viewBox="0 0 59.00725799999999 42.606962093485436" height="42.606962093485436" width="59.00725799999999"><g><svg viewBox="0 0 59.00725799999999 42.606962093485436" height="42.606962093485436" width="59.00725799999999"><g><svg viewBox="0 0 59.00725799999999 42.606962093485436" height="42.606962093485436" width="59.00725799999999"><g id="textblocktransform"><svg viewBox="0 0 59.00725799999999 42.606962093485436" height="42.606962093485436" width="59.00725799999999" id="textblock"><g><svg viewBox="0 0 59.00725799999999 42.606962093485436" height="42.606962093485436" width="59.00725799999999"><g><svg viewBox="0 0 59.00725799999999 42.606962093485436" height="42.606962093485436" width="59.00725799999999"><g><svg xmlns="http://www.w3.org/2000/svg" xmlns:xlink="http://www.w3.org/1999/xlink" version="1.1" x="0" y="0" viewBox="10.900999999999968 21.769000000000005 78.194 56.46100000000001" enable-background="new 0 0 100 100" xml:space="preserve" height="42.606962093485436" width="59.00725799999999" class="icon-icon-0" data-fill-palette-color="accent" id="icon-0"><path fill="#000000" d="M88.904 48.56l-3.111-6.143-1.381-6.167-0.503-0.849-2.996-2.625-0.098-0.191-1.513-1.221-2.107-1.848-0.443-0.21-0.679-0.548-7.867-1.348-0.548-1.865-1.555-1.141-9.367 0.178-0.424 0.066-0.831 0.248-3.516-2.313-0.645 0.095-0.944-0.65-1.158-0.259-18.414 3.004-0.924 1.775-2.372 0.979-6.094 1.19-0.774 1.647-1.514 0.626-0.438 7.174 2.549 6.899-7.1 2.872-0.98 1.276-0.607 4.868 0.14 0.874 0.971 2.06-2.76 3.377 3.792 8.301 0.881 7.22 23.026 2.319 24.54-3.895 19.747-11.002 6.208-6.951L88.904 48.56zM56.766 26.17l9.367-0.176 2.157 7.336-13.803 2.281-9.198-6.009L56.766 26.17zM49.475 23.336l4.121 2.834-4.203 0.171-14.271 8.431-4.062-8.431L49.475 23.336zM29.753 28.709l4.864 7.213-2.077 2.609-7.054-1.388-3.767-6.868L29.753 28.709zM37.063 67.779l-6.003-1.7-11.251 0.246-5.68-12.048 0.606-4.87 10.751-4.347 15.819 18.075L37.063 67.779zM45.289 51.427l-8.731-10.599 8.731-4.726 7.135 3.426 5.177 7.662L45.289 51.427zM63.117 50.175L54.624 39.72l15.729-2.766-1.122-7.377 6.919 1.134 6.712 5.885 1.772 7.915L63.117 50.175z" data-fill-palette-color="accent"></path></svg></g></svg></g></svg></g></svg></g></svg></g></svg></g></svg></g><defs></defs></svg><rect width="59.00725799999999" height="42.606962093485436" fill="none" stroke="none" visibility="hidden"></rect></g></svg></g></svg>